<?xml version="1.0" encoding="utf-8"?>
<!-- Generator: Adobe Illustrator 25.2.3, SVG Export Plug-In . SVG Version: 6.00 Build 0)  -->
<svg version="1.1" id="Calque_1" xmlns="http://www.w3.org/2000/svg" xmlns:xlink="http://www.w3.org/1999/xlink" x="0px" y="0px"
	 viewBox="0 0 256 256" style="enable-background:new 0 0 256 256;" xml:space="preserve">
<g>
	<rect style="fill:#3FA9F5;" width="256" height="256"/>
</g>
<path style="fill:#F2F2F2;" d="M20.6,223.2l12.2,12.2c4,4.1,10.6,4.1,14.6,0l43-43c1.9-1.9,3-4.6,3-7.3v-7
	c15.2,11.9,34.4,19,55.2,19c49.6,0,89.7-40.2,89.7-89.7s-40.2-89.7-89.7-89.7S59,57.7,59,107.3c0,20.8,7.1,40,19,55.2h-7
	c-2.8,0-5.4,1.1-7.3,3l-43,43C16.6,212.6,16.6,219.1,20.6,223.2z M93.5,107.3c0-30.5,24.7-55.2,55.2-55.2
	c30.5,0,55.2,24.7,55.2,55.2c0,30.5-24.7,55.2-55.2,55.2C118.2,162.5,93.5,137.8,93.5,107.3z"/>
<path style="fill:#FFFFFF;stroke:#3FA9F5;stroke-miterlimit:10;" d="M121.2,103.8c5.7,0,10.4-4.6,10.4-10.4
	c0-5.7-4.6-10.4-10.4-10.4c-5.7,0-10.4,4.6-10.4,10.4C110.8,99.1,115.4,103.8,121.2,103.8z M128.4,106.4h-1.4
	c-1.8,0.8-3.8,1.3-5.9,1.3s-4.1-0.5-5.9-1.3h-1.4c-6,0-10.9,4.9-10.9,10.9v3.4c0,2.2,1.7,3.9,3.9,3.9h28.6c2.2,0,3.9-1.7,3.9-3.9
	v-3.4C139.3,111.3,134.4,106.4,128.4,106.4z"/>
<path style="fill:#FFFFFF;stroke:#3FA9F5;stroke-miterlimit:10;" d="M176.2,103.8c5.7,0,10.4-4.6,10.4-10.4
	c0-5.7-4.6-10.4-10.4-10.4c-5.7,0-10.4,4.6-10.4,10.4C165.8,99.1,170.4,103.8,176.2,103.8z M183.4,106.4h-1.4
	c-1.8,0.8-3.8,1.3-5.9,1.3c-2.1,0-4.1-0.5-5.9-1.3h-1.4c-6,0-10.9,4.9-10.9,10.9v3.4c0,2.2,1.7,3.9,3.9,3.9h28.6
	c2.2,0,3.9-1.7,3.9-3.9v-3.4C194.3,111.3,189.4,106.4,183.4,106.4z"/>
<path style="fill:#FFFFFF;stroke:#3FA9F5;stroke-miterlimit:10;" d="M149.2,110.8c5.7,0,10.4-4.6,10.4-10.4
	c0-5.7-4.6-10.4-10.4-10.4c-5.7,0-10.4,4.6-10.4,10.4C138.8,106.1,143.4,110.8,149.2,110.8z M156.4,113.4h-1.4
	c-1.8,0.8-3.8,1.3-5.9,1.3c-2.1,0-4.1-0.5-5.9-1.3h-1.4c-6,0-10.9,4.9-10.9,10.9v3.4c0,2.2,1.7,3.9,3.9,3.9h28.6
	c2.2,0,3.9-1.7,3.9-3.9v-3.4C167.3,118.3,162.4,113.4,156.4,113.4z"/>
</svg>
